<?xml version="1.0" encoding="utf-8"?>
<!-- Generator: Adobe Illustrator 26.3.1, SVG Export Plug-In . SVG Version: 6.00 Build 0)  -->
<svg version="1.1" id="圖層_1" xmlns="http://www.w3.org/2000/svg" xmlns:xlink="http://www.w3.org/1999/xlink" x="0px" y="0px"
 viewBox="0 0 690 268" style="enable-background:new 0 0 690 268;" xml:space="preserve">
<style type="text/css">
.st0{fill:#6E161B;}
</style>
<g>
<g>
<path d="M581.48,209.81h96.79v-27.45h-96.79V209.81z M678.27,239.68h-96.79v28.05h96.79V239.68z"/>
<polygon points="31.05,267.73 31.05,208.01 91.56,208.01 91.56,267.73 122.44,267.73 122.44,165.74 91.56,165.74 91.56,179.95 
31.05,179.95 31.05,128.04 0.18,128.04 0.18,267.73 "/>
<path d="M316.34,210.11c0,19.04,5.61,33.48,16.82,43.69c11.23,10.02,25.46,15.03,42.69,15.03c17.04,0,31.26-5.01,42.48-15.24
c11.23-10.21,16.84-24.64,16.84-43.49v-83.17h-30.88v79.96c0,22.66-9.41,33.88-28.45,33.88c-19.04,0-28.66-11.22-28.66-33.88
v-79.96h-30.86V210.11z"/>
<path d="M506.83,267.73c33.54-0.07,50.78-16.38,50.78-41.38c0-19.43-10.04-30.89-35.04-40.23c-3.34-1.36-7.29-2.7-11.82-4.26
l-9.84-3.31c-1.76-0.77-3.94-1.75-6.1-2.92c-4.14-2.52-5.31-5.24-5.31-9.69c0-5.36,4.51-9.48,11.82-10.7h167.95l20.54-27.19
H505.26c-12.8,0-23.63,3.49-32.49,10.48c-8.85,6.8-13.19,16.14-13.19,27.8c0,20.39,11.8,31.48,33.28,39.25
c3.94,1.55,11.81,4.07,15.15,5.43c3.74,0.97,9.25,3.29,11.81,5.06c4.53,2.71,7.48,6.21,7.48,11.27c0,6.43-5.2,12.08-16.28,13.21
h-40.23l-20.53,27.19H506.83z"/>
<path d="M296.71,197.89c0,20.23-7.21,37.47-21.64,51.49c-14.64,13.83-32.26,20.85-52.91,20.85c-20.83,0-38.48-7.02-52.91-20.85
c-14.42-14.02-21.64-31.26-21.64-51.49c0-9.52,3.41-22.78,6.62-30.9h34.54c-5.67,7.6-10.3,20.86-10.3,30.9
c0,12.22,4.21,22.84,12.83,31.46c8.42,8.62,18.63,12.83,30.86,12.83c12.23,0,22.64-4.21,31.06-12.63
c8.42-8.62,12.63-19.04,12.63-31.66c0-12.23-4.21-22.66-12.63-31.26c-8.42-8.62-18.83-13.03-31.06-13.03h-0.57h-58.63H91.56
v-28.05H221.2h0.96c20.65,0,38.28,7,52.91,21.04C289.5,160.61,296.71,177.64,296.71,197.89"/>
<polygon class="st0" points="119.29,80.15 91.33,102.41 91.64,126.95 127.61,98.32 120.13,91.88 "/>
<path class="st0" d="M194.86,24.32l-14.45,11.5c-1.43,1.14-1.66,3.22-0.53,4.64l5.23,6.57c1.14,1.43,3.22,1.66,4.64,0.53
l14.45-11.5c1.43-1.14,1.66-3.22,0.53-4.64l-5.23-6.57C198.37,23.42,196.29,23.19,194.86,24.32"/>
<path class="st0" d="M238.08,9.11c-0.37-0.55-0.76-1.09-1.18-1.61c-7.23-8.9-20.3-10.33-29.29-3.17
c-0.02,0.01-0.03,0.03-0.05,0.04l-0.07-0.19l-2.09,1.67l23.07,10.91L238.08,9.11z"/>
<path class="st0" d="M239.11,10.85l-10.37,8.25l-5.16-2.44l-18.21,14.49c1.24,1.71,0.92,4.11-0.75,5.43l-14.45,11.5
c-1.66,1.33-4.08,1.1-5.46-0.49l-5.24,4.17l-2.5-9.62l2.1-1.67c-1.02-1.68-0.66-3.91,0.92-5.17l14.45-11.5
c1.58-1.26,3.83-1.11,5.25,0.26l14.73-11.73l-10.78-5.09l-83.34,66.34l1.26,17.16l11.07,9.35l65.74-52.33
c5.82-4.63,13.2-6.76,20.62-6.17c5.1,0.4,10.37-1.05,14.69-4.49C241.66,30.75,243.73,19.55,239.11,10.85 M136.99,85.58
c-1.2,0.96-2.95,0.76-3.91-0.44l-2.2-2.76c-0.96-1.2-0.76-2.95,0.44-3.91l5.77-4.59l2.5,9.62L136.99,85.58z M139.89,83.27
l-2.5-9.62l7.63-6.07l2.5,9.62L139.89,83.27z M147.81,76.97l-2.5-9.62l7.63-6.07l2.5,9.62L147.81,76.97z M155.73,70.67l-2.5-9.62
l7.63-6.07l2.5,9.62L155.73,70.67z M163.64,64.37l-2.5-9.62l7.63-6.07l2.5,9.62L163.64,64.37z M171.56,58.06l-2.5-9.62l7.63-6.07
l2.5,9.62L171.56,58.06z M222.78,32.67c-0.96,0.77-2.37,0.61-3.13-0.36c-0.77-0.96-0.61-2.37,0.36-3.13
c0.96-0.77,2.37-0.61,3.13,0.36C223.91,30.5,223.75,31.91,222.78,32.67"/>
<polygon points="284.93,65.74 294.25,92.21 305.31,63.95 315.79,92.21 326.12,65.74 330.46,65.74 315.64,102.91 305.26,74.64 
294.14,102.91 280.59,65.74 "/>
<path d="M372.9,65.74c2.39,0,5.93,0.16,8.58,1.96c2.06,1.38,3.86,4.08,3.86,7.84c0,5.4-3.54,9.37-8.89,9.74l11.22,15.78h-4.77
l-10.75-15.46h-1.01v15.46h-3.92V65.74H372.9z M371.16,82.1h2.49c4.87,0,7.79-2.33,7.79-6.46c0-1.96-0.58-3.92-2.81-5.19
c-1.59-0.9-3.39-1.01-5.08-1.01h-2.39V82.1z"/>
<path d="M445.1,91.1h-15.03l-4.23,9.95h-4.35l16.26-37l15.83,37h-4.35L445.1,91.1z M443.56,87.4l-5.93-14.13l-6.03,14.13H443.56z"
/>
<path d="M496.74,65.74c3.55,0,6.51,0.43,8.9,2.49c2.59,2.22,3.23,5.35,3.23,7.57c0,4.97-3.12,9.9-11.17,9.9h-3.44v15.35h-3.92
V65.74H496.74z M494.26,82h3.23c4.66,0,7.46-2.33,7.46-6.41c0-5.61-5.24-6.14-7.78-6.14h-2.92V82z"/>
<path d="M552.68,65.74c3.55,0,6.51,0.43,8.9,2.49c2.59,2.22,3.23,5.35,3.23,7.57c0,4.97-3.12,9.9-11.17,9.9h-3.44v15.35h-3.92
V65.74H552.68z M550.19,82h3.23c4.66,0,7.46-2.33,7.46-6.41c0-5.61-5.24-6.14-7.78-6.14h-2.92V82z"/>
<polygon points="620.53,69.45 606.13,69.45 606.13,79.93 620.1,79.93 620.1,83.64 606.13,83.64 606.13,97.35 620.53,97.35 
620.53,101.05 602.21,101.05 602.21,65.74 620.53,65.74 "/>
<path d="M665.19,65.74c2.38,0,5.93,0.16,8.57,1.96c2.07,1.38,3.87,4.08,3.87,7.84c0,5.4-3.55,9.37-8.9,9.74l11.22,15.78h-4.77
l-10.75-15.46h-1v15.46h-3.92V65.74H665.19z M663.44,82.1h2.49c4.87,0,7.78-2.33,7.78-6.46c0-1.96-0.58-3.92-2.81-5.19
c-1.58-0.9-3.39-1.01-5.08-1.01h-2.38V82.1z"/>
</g>
</g>
</svg>
