<?xml version="1.0" encoding="UTF-8"?>
<svg id="Layer_1" data-name="Layer 1" xmlns="http://www.w3.org/2000/svg" viewBox="0 0 400.27 79.12">
  <defs>
    <style>
      .cls-1 {
        fill: #c70026;
      }

      .cls-2 {
        fill: #03328d;
      }
    </style>
  </defs>
  <path class="cls-1" d="M.16,51.97l24.24-1.39c-.16,3.6.38,6.35,1.62,8.24,2.02,3.05,5.45,4.58,10.29,4.58,3.61,0,6.54-.78,8.79-2.35,2.25-1.57,3.57-3.38,3.96-5.45.37-1.96-.23-3.72-1.81-5.27-1.58-1.55-5.61-3.02-12.09-4.39-10.61-2.31-17.91-5.37-21.89-9.19-4.02-3.82-5.47-8.69-4.35-14.6.74-3.89,2.65-7.56,5.73-11.02,3.08-3.46,7.25-6.18,12.5-8.15,5.25-1.98,12.12-2.97,20.61-2.97,10.42,0,18.02,1.8,22.81,5.39,4.79,3.59,6.96,9.31,6.51,17.16l-23.93,1.29c.01-3.41-.85-5.9-2.59-7.45-1.74-1.55-4.4-2.33-7.98-2.33-2.95,0-5.28.58-6.99,1.73-1.71,1.15-2.72,2.56-3.03,4.21-.23,1.21.19,2.29,1.25,3.25,1.02,1,3.67,1.93,7.95,2.79,10.59,2.2,18.06,4.44,22.4,6.69,4.34,2.26,7.27,5.05,8.81,8.39,1.54,3.34,1.91,7.08,1.13,11.21-.92,4.86-3.21,9.33-6.88,13.43-3.67,4.1-8.3,7.21-13.9,9.33-5.59,2.12-12.34,3.18-20.24,3.18-13.88,0-23.02-2.48-27.42-7.43C1.25,65.9-.58,59.6.16,51.97Z"/>
  <path class="cls-1" d="M135.82,77.04h-21.14l1.68-8.87c-3.83,3.65-7.49,6.24-10.98,7.79-3.49,1.54-7.56,2.32-12.21,2.32-6.21,0-10.75-1.73-13.62-5.19-2.87-3.46-3.63-8.79-2.26-15.99l6.61-34.91h22.65l-5.72,30.18c-.65,3.44-.43,5.89.66,7.34,1.09,1.45,2.88,2.17,5.35,2.17,2.7,0,5.09-.96,7.18-2.89,2.08-1.93,3.6-5.39,4.55-10.39l5-26.41h22.65l-10.39,54.85Z"/>
  <path class="cls-1" d="M153.04,22.19h21.09l-1.7,8.97c3.84-3.66,7.51-6.28,11.02-7.85,3.51-1.57,7.58-2.36,12.2-2.36,6.24,0,10.8,1.73,13.67,5.19,2.87,3.46,3.62,8.8,2.25,16.04l-6.6,34.86h-22.65l5.7-30.12c.65-3.44.43-5.87-.67-7.29-1.1-1.43-2.88-2.14-5.36-2.14-2.74,0-5.14.96-7.2,2.89-2.07,1.93-3.57,5.38-4.51,10.37l-4.98,26.3h-22.65l10.39-54.85Z"/>
  <path class="cls-2" d="M205.82,2.09h76.38l-3.55,18.74h-25.61l-10.81,57.05h-25.16l10.81-57.05h-25.61l3.55-18.74Z"/>
  <path class="cls-2" d="M322.73,55.56h-45.3c-.24,3.39.27,5.92,1.51,7.58,1.73,2.39,4.35,3.58,7.87,3.58,2.22,0,4.43-.53,6.63-1.58,1.35-.67,2.88-1.84,4.61-3.52l21.84,1.93c-4.45,5.55-9.31,9.54-14.57,11.95-5.26,2.41-12.38,3.62-21.36,3.62-7.8,0-13.74-1.03-17.82-3.07-4.08-2.05-7.17-5.3-9.27-9.76-2.09-4.46-2.57-9.7-1.43-15.73,1.62-8.57,5.89-15.51,12.79-20.81,6.9-5.3,15.55-7.95,25.94-7.95,8.43,0,14.87,1.19,19.3,3.55,4.43,2.37,7.5,5.8,9.2,10.29,1.7,4.5,1.87,10.34.5,17.55l-.45,2.37ZM301.69,45.5c.32-4.04-.31-6.93-1.89-8.68-1.58-1.75-3.92-2.62-7.04-2.62-3.6,0-6.72,1.32-9.37,3.95-1.68,1.65-3.02,4.09-4,7.34h22.3Z"/>
  <path class="cls-2" d="M336.44,2.09h23.09l-7.42,39.16,20.33-18.21h27.82l-24.81,19.22,15.6,35.62h-25.46l-7.88-21.89-9.85,7.63-2.7,14.25h-23.09l14.36-75.8Z"/>
  <path class="cls-2" d="M376.38,10.32c0,1.34-.33,2.58-1,3.74-.67,1.16-1.58,2.07-2.73,2.73-1.15.67-2.4,1-3.74,1s-2.58-.33-3.73-1c-1.15-.66-2.06-1.58-2.73-2.73-.67-1.15-1-2.4-1-3.74s.33-2.58,1-3.73c.67-1.16,1.58-2.07,2.73-2.74,1.15-.67,2.39-1,3.73-1s2.58.33,3.74,1c1.15.67,2.06,1.58,2.73,2.74.67,1.16,1,2.4,1,3.73ZM374.91,10.32c0-1.66-.58-3.09-1.76-4.26-1.17-1.18-2.59-1.77-4.25-1.77s-3.08.59-4.25,1.77c-1.18,1.18-1.76,2.6-1.76,4.26s.59,3.08,1.76,4.26c1.17,1.18,2.59,1.77,4.25,1.77s3.08-.59,4.25-1.77c1.18-1.18,1.76-2.6,1.76-4.26ZM365.52,6.33h3.57c1.01,0,1.74.2,2.2.61.46.4.68.95.68,1.63,0,.53-.17.99-.52,1.38-.35.39-.89.67-1.64.85.3.12.53.24.67.37.2.18.41.46.64.82.01.03.44.8,1.29,2.33h-2.35c-.76-1.53-1.27-2.44-1.53-2.74-.26-.3-.52-.45-.78-.45-.06,0-.14,0-.25.03v3.16h-1.98v-7.99ZM367.5,9.67h.86c.58,0,.98-.09,1.21-.27.24-.18.35-.42.35-.71s-.12-.52-.34-.71c-.23-.18-.61-.27-1.15-.27h-.94v1.96Z"/>
</svg>